<?xml version="1.0" encoding="utf-8"?>
<!-- Generator: Adobe Illustrator 27.0.1, SVG Export Plug-In . SVG Version: 6.00 Build 0)  -->
<svg version="1.1" id="Layer_1" xmlns="http://www.w3.org/2000/svg" xmlns:xlink="http://www.w3.org/1999/xlink" x="0px" y="0px"
	 viewBox="0 0 100 100" style="enable-background:new 0 0 100 100;" xml:space="preserve">
<style type="text/css">
	.st0{fill:#E2896E;}
</style>
<path class="st0" d="M13.88,88.13c-0.52,0-1.04-0.21-1.42-0.59c-0.54-0.54-0.73-1.33-0.48-2.05l7.36-22.1
	c-2.28-4.79-3.47-10.1-3.45-15.4c0-13.76,7.66-26.14,19.97-32.29c4.95-2.5,10.5-3.82,16.05-3.82c0.03,0,0.07,0,0.1,0h2
	c18.48,1.01,33.1,15.63,34.11,34.01v2.12c0.01,5.58-1.31,11.17-3.83,16.15C78.13,76.47,65.76,84.13,52,84.13c-0.03,0-0.06,0-0.09,0
	c-5.27,0-10.55-1.19-15.31-3.46l-22.1,7.37C14.31,88.09,14.09,88.13,13.88,88.13z M51.92,15.89c-4.93,0-9.86,1.17-14.26,3.4
	C26.71,24.76,19.9,35.76,19.9,47.99c-0.01,4.96,1.16,9.92,3.4,14.35c0.24,0.48,0.28,1.03,0.11,1.54l-6.36,19.07l19.07-6.36
	c0.51-0.16,1.06-0.13,1.54,0.11c4.4,2.23,9.33,3.4,14.27,3.4c0.02,0,0.05,0,0.08,0c12.24-0.01,23.24-6.81,28.71-17.76v-0.01
	c2.23-4.42,3.41-9.38,3.4-14.34v-2.01c-0.9-16.22-13.89-29.21-30.21-30.1h-1.9C51.98,15.89,51.95,15.89,51.92,15.89z"/>
<path class="st0" d="M51.34,72.07c-12.91,0-23.41-10.5-23.41-23.41s10.5-23.41,23.41-23.41s23.41,10.5,23.41,23.41
	S64.25,72.07,51.34,72.07z M51.34,29.26c-10.7,0-19.4,8.7-19.4,19.4s8.7,19.4,19.4,19.4s19.4-8.7,19.4-19.4S62.03,29.26,51.34,29.26
	z"/>
<path class="st0" d="M72.74,50.67H29.93c-1.11,0-2.01-0.9-2.01-2.01s0.9-2.01,2.01-2.01h42.81c1.11,0,2.01,0.9,2.01,2.01
	S73.85,50.67,72.74,50.67z"/>
<path class="st0" d="M51.34,72.07c-0.59,0-1.14-0.26-1.52-0.7c-5.32-6.22-8.35-14.27-8.51-22.67c0.16-8.48,3.19-16.53,8.51-22.75
	c0.76-0.89,2.29-0.89,3.05,0c5.32,6.22,8.34,14.27,8.51,22.67c0,0.03,0,0.05,0,0.08c-0.16,8.4-3.19,16.45-8.51,22.67
	C52.48,71.82,51.92,72.07,51.34,72.07z M51.34,30.49c-3.77,5.2-5.89,11.58-6.02,18.21c0.13,6.56,2.25,12.92,6.02,18.13
	c3.76-5.19,5.88-11.55,6.02-18.17C57.22,42.05,55.1,35.69,51.34,30.49z"/>
</svg>
