<?xml version="1.0" encoding="utf-8"?>
<!-- Generator: Adobe Illustrator 25.2.0, SVG Export Plug-In . SVG Version: 6.00 Build 0)  -->
<svg version="1.1" id="clip-1167" xmlns="http://www.w3.org/2000/svg" xmlns:xlink="http://www.w3.org/1999/xlink" x="0px" y="0px"
	 viewBox="0 0 90 124.2" style="enable-background:new 0 0 90 124.2;" xml:space="preserve">
<style type="text/css">
	.st0{fill:#FFC6AF;}
	.st1{fill:#F9B69C;}
	.st2{fill:#F06027;}
</style>
<g>
	<g id="Group_15686" transform="translate(11.189 0)">
		<g id="Group_15685">
			<path id="Path_9081" class="st0" d="M45.1,64.8H22.5c-11.1,0-20.1-9-20.2-20.1V33.5C2.4,16.1,16.4,2,33.8,2s31.5,14.1,31.5,31.5
				v11.2C65.2,55.8,56.2,64.8,45.1,64.8z M33.8,10.4c-12.8,0-23.1,10.3-23.2,23.1v11.2c0,6.6,5.3,11.8,11.9,11.8h22.6
				c6.6,0,11.9-5.3,11.9-11.8V33.5C56.9,20.7,46.6,10.4,33.8,10.4z"/>
		</g>
	</g>
	<path id="Path_9082" class="st1" d="M62.6,122.2H27.4c-13.8,0-25-11.2-25-25.1c0,0,0,0,0,0V61.8c0-13.8,11.2-25.1,25-25.1
		c0,0,0,0,0,0h35.2c13.8,0,25,11.2,25,25.1c0,0,0,0,0,0v35.3C87.7,111,76.5,122.2,62.6,122.2C62.6,122.2,62.6,122.2,62.6,122.2z"/>
	<path id="Path_9083" class="st0" d="M57.6,114H25.8c-12.4,0-22.4-10-22.4-22.3c0,0,0,0,0,0V60.5c0-12.4,10.1-22.4,22.4-22.3
		c0,0,0,0,0,0h31.8C70,38.2,80,48.2,80,60.5c0,0,0,0,0,0v31.1C80,104,70,114,57.6,114C57.6,114,57.6,114,57.6,114z"/>
	<path id="Path_9084" class="st2" d="M45,96.3L45,96.3c-4.1,0-7.4-3.3-7.4-7.4V63.6c0-4.1,3.3-7.4,7.4-7.4l0,0
		c4.1,0,7.4,3.3,7.4,7.4V89C52.4,93,49.1,96.3,45,96.3z"/>
</g>
</svg>
