<svg xmlns="http://www.w3.org/2000/svg" xmlns:xlink="http://www.w3.org/1999/xlink" width="250" height="236" viewBox="0 0 250 236">
  <defs>
    <clipPath id="clip-path">
      <rect id="Rectangle_1662" data-name="Rectangle 1662" width="250" height="23" transform="translate(0 -0.357)"/>
    </clipPath>
    <clipPath id="clip-path-2">
      <rect id="Rectangle_1673" data-name="Rectangle 1673" width="53.876" height="80.815"/>
    </clipPath>
    <clipPath id="clip-path-3">
      <rect id="Rectangle_1676" data-name="Rectangle 1676" width="67" height="111" transform="translate(-0.409 -0.173)"/>
    </clipPath>
    <clipPath id="clip-path-4">
      <rect id="Rectangle_1706" data-name="Rectangle 1706" width="103" height="213" transform="translate(-0.177 -0.311)"/>
    </clipPath>
    <linearGradient id="linear-gradient" y1="-24.985" x2="1" y2="-24.985" gradientUnits="objectBoundingBox">
      <stop offset="0" stop-color="#ff953f"/>
      <stop offset="0.18" stop-color="#fcaf3c"/>
      <stop offset="0.37" stop-color="#fbc13b"/>
      <stop offset="0.56" stop-color="#f9cc39"/>
      <stop offset="0.77" stop-color="#f9d039"/>
    </linearGradient>
    <linearGradient id="linear-gradient-2" y1="-16.348" x2="1" y2="-16.348" gradientUnits="objectBoundingBox">
      <stop offset="0" stop-color="#0075be"/>
      <stop offset="0.21" stop-color="#1089cb"/>
      <stop offset="0.42" stop-color="#1a97d4"/>
      <stop offset="0.61" stop-color="#1e9cd7"/>
      <stop offset="0.66" stop-color="#279fd8"/>
      <stop offset="0.73" stop-color="#3ea9dc"/>
      <stop offset="0.81" stop-color="#65b8e3"/>
      <stop offset="0.91" stop-color="#9accec"/>
      <stop offset="1" stop-color="#cce0f4"/>
    </linearGradient>
    <linearGradient id="linear-gradient-3" x1="0" y1="-28.86" y2="-28.86" xlink:href="#linear-gradient"/>
    <linearGradient id="linear-gradient-4" x1="0" y1="-42.444" x2="1" y2="-42.444" xlink:href="#linear-gradient-2"/>
    <linearGradient id="linear-gradient-5" x1="0.5" y1="-38.084" x2="0.5" y2="-39.084" gradientUnits="objectBoundingBox">
      <stop offset="0" stop-color="#ff953f"/>
      <stop offset="0.18" stop-color="#fe9b3e"/>
      <stop offset="0.42" stop-color="#fdac3d"/>
      <stop offset="0.7" stop-color="#fac73a"/>
      <stop offset="0.77" stop-color="#f9d039"/>
    </linearGradient>
    <linearGradient id="linear-gradient-6" x1="0" y1="-23.029" y2="-23.029" xlink:href="#linear-gradient"/>
    <linearGradient id="linear-gradient-7" x1="0" y1="-8.329" x2="1" y2="-8.329" xlink:href="#linear-gradient-2"/>
  </defs>
  <g id="jaconda-26" transform="translate(-165.559 -91.01)">
    <g id="Group_16638" data-name="Group 16638" transform="translate(165.559 304.368)">
      <g id="Group_16637" data-name="Group 16637" transform="translate(0 0)">
        <g id="Group_16636" data-name="Group 16636" clip-path="url(#clip-path)">
          <g id="Group_16635" data-name="Group 16635">
            <rect id="Rectangle_1661" data-name="Rectangle 1661" width="250" height="23" transform="translate(0 -0.357)" fill="#dcdde2"/>
            <path id="Path_10501" data-name="Path 10501" d="M13.746,12.2V24.234a.954.954,0,0,0,.838,1.027.843.843,0,0,0,.458-.16L30.224,13.084a1.037,1.037,0,0,0,.365-.642,1.207,1.207,0,0,0-.117-.77.819.819,0,0,0-.707-.465H14.584a.738.738,0,0,0-.59.28A1.117,1.117,0,0,0,13.746,12.2Z" transform="translate(-10.264 -7.179)" fill="#eeeff5"/>
            <path id="Path_10502" data-name="Path 10502" d="M32.465,24.793a1.125,1.125,0,0,0-.394,1.162.872.872,0,0,0,.826.747H56.953a.765.765,0,0,0,.593-.3,1.152,1.152,0,0,0,.245-.727,1.188,1.188,0,0,0-.118-.529L51.587,12.632a.754.754,0,0,0-1.126-.369Z" transform="translate(-23.264 -7.771)" fill="#eeeff5"/>
            <path id="Path_10503" data-name="Path 10503" d="M111.083,12.7l2.893,6.129a.757.757,0,0,0,1.139.369.6.6,0,0,0,.144-.128l5.471-6.129a1.125,1.125,0,0,0,.272-.709,1.162,1.162,0,0,0-.219-.735.784.784,0,0,0-.615-.337H111.8a.765.765,0,0,0-.593.3,1.152,1.152,0,0,0-.245.727,1.168,1.168,0,0,0,.118.513Z" transform="translate(-79.343 -7.152)" fill="#eeeff5"/>
            <path id="Path_10504" data-name="Path 10504" d="M127.737,23.019l1.086,2.519a.831.831,0,0,0,.733.545h17.329a.765.765,0,0,0,.593-.3,1.152,1.152,0,0,0,.245-.727,1.32,1.32,0,0,0-.065-.385L143.443,11.8a.86.86,0,0,0-.772-.642H137.2a.724.724,0,0,0-.576.289L127.894,21.8a1.23,1.23,0,0,0-.157,1.219Z" transform="translate(-91.194 -7.152)" fill="#eeeff5"/>
            <path id="Path_10505" data-name="Path 10505" d="M194.173,12.511l1.374,4.909a.819.819,0,0,0,1.06.642.417.417,0,0,0,.157-.1l6.662-4.909a1.157,1.157,0,0,0,.288-1.4.828.828,0,0,0-.72-.5h-8.036a.765.765,0,0,0-.593.3,1.152,1.152,0,0,0-.245.727.86.86,0,0,0,.052.321Z" transform="translate(-138.429 -7.152)" fill="#eeeff5"/>
            <path id="Path_10506" data-name="Path 10506" d="M203.922,24.07l.89,3.3a.817.817,0,0,0,1.047.658c.013,0,.026-.016.039-.016l7.644-3.578a1,1,0,0,0,.5-.626l2.16-7.669a1.165,1.165,0,0,0-.261-1.13.709.709,0,0,0-.956-.073l-10.693,7.941A1.123,1.123,0,0,0,203.922,24.07Z" transform="translate(-145.364 -9.47)" fill="#eeeff5"/>
            <path id="Path_10507" data-name="Path 10507" d="M237.823,45.86l1.348-.594a.742.742,0,0,1,.707.08l.811.594a1.13,1.13,0,0,1,.374,1.149.875.875,0,0,1-.806.744H238.1C237.156,47.85,236.933,46.245,237.823,45.86Z" transform="translate(-169.083 -28.918)" fill="#eeeff5"/>
            <path id="Path_10508" data-name="Path 10508" d="M250.184,22.325l2.788,1.989a.734.734,0,0,0,1.047-.209L261.9,12.892a1.2,1.2,0,0,0,.125-1.1.834.834,0,0,0-.766-.588h-7.644a.846.846,0,0,0-.772.642l-3.01,9.225a1.16,1.16,0,0,0,.353,1.251Z" transform="translate(-177.976 -7.18)" fill="#eeeff5"/>
            <path id="Path_10509" data-name="Path 10509" d="M275.8,26.083h23.991a.765.765,0,0,0,.593-.3,1.152,1.152,0,0,0,.245-.727,1.039,1.039,0,0,0-.052-.353l-3.835-12.867a.863.863,0,0,0-.785-.674H283.944a.768.768,0,0,0-.654.4l-8.128,12.867a1.17,1.17,0,0,0-.174.751,1.07,1.07,0,0,0,.318.677A.7.7,0,0,0,275.8,26.083Z" transform="translate(-195.886 -7.152)" fill="#eeeff5"/>
            <path id="Path_10510" data-name="Path 10510" d="M358.3,12.511l1.544,5.535a.819.819,0,0,0,1.06.642.664.664,0,0,0,.236-.16l5.89-5.535a1.162,1.162,0,0,0,.283-1.14.861.861,0,0,0-.793-.689H359.1a.765.765,0,0,0-.593.3,1.152,1.152,0,0,0-.245.727A1.249,1.249,0,0,0,358.3,12.511Z" transform="translate(-255.061 -7.152)" fill="#eeeff5"/>
            <path id="Path_10511" data-name="Path 10511" d="M368.026,29.591l.877,3.385a.924.924,0,0,0,.838.754h10.222a.991.991,0,0,0,.877-1.075.953.953,0,0,0-.013-.193l-1.073-7.492a1,1,0,0,0-.707-.866l-4.463-.963a.741.741,0,0,0-.668.193l-5.563,5.07a1.216,1.216,0,0,0-.327,1.187Z" transform="translate(-261.971 -14.798)" fill="#eeeff5"/>
            <path id="Path_10512" data-name="Path 10512" d="M401.724,13.987l2.487.513a.793.793,0,0,0,.707-.225l1.2-1.2a1.14,1.14,0,0,0,.319-.724,1.222,1.222,0,0,0-.2-.785.826.826,0,0,0-.681-.4H402.5a.8.8,0,0,0-.589.273l-.628.69a1.176,1.176,0,0,0-.288.737,1.222,1.222,0,0,0,.222.771A.823.823,0,0,0,401.724,13.987Z" transform="translate(-285.421 -7.152)" fill="#eeeff5"/>
            <path id="Path_10513" data-name="Path 10513" d="M415.034,28.889l1.335,6.85a.925.925,0,0,0,.851.818h2.827a.991.991,0,0,0,.877-1.075,1.256,1.256,0,0,0-.092-.481l-2.657-6.61a.914.914,0,0,0-.681-.594l-1.505-.241a.759.759,0,0,0-.649.214,1.143,1.143,0,0,0-.332.717A1.984,1.984,0,0,0,415.034,28.889Z" transform="translate(-295.38 -17.626)" fill="#eeeff5"/>
            <path id="Path_10514" data-name="Path 10514" d="M424.394,15.351l.654.144a.91.91,0,0,1,.589.513l1.479,3.048a.915.915,0,0,0,.539.492.739.739,0,0,0,.665-.123,1.623,1.623,0,0,0,.223-.225l4.345-6.273a1.273,1.273,0,0,0,.123-1.142.886.886,0,0,0-.791-.623H426.5a.82.82,0,0,0-.576.257l-1.937,2.054a1.166,1.166,0,0,0-.3.731,1.231,1.231,0,0,0,.209.777.76.76,0,0,0,.5.369Z" transform="translate(-301.547 -7.152)" fill="#eeeff5"/>
            <path id="Path_10515" data-name="Path 10515" d="M440.035,25.5l.929,2.792a.9.9,0,0,0,.811.674h10.17a.991.991,0,0,0,.877-1.075,1.125,1.125,0,0,0-.092-.465l-4.463-11.15a.81.81,0,0,0-1.165-.5,1.07,1.07,0,0,0-.249.209l-6.636,8.375A1.217,1.217,0,0,0,440.035,25.5Z" transform="translate(-313.118 -10.035)" fill="#eeeff5"/>
            <path id="Path_10516" data-name="Path 10516" d="M475.74,12.748l2.526,6.514a.818.818,0,0,0,1.165.513.284.284,0,0,0,.1-.08l7.8-6.369a1.2,1.2,0,0,0,.36-1.2.925.925,0,0,0-.831-.773l-10.327-.144a.994.994,0,0,0-.89,1.059,1.8,1.8,0,0,0,.092.481Z" transform="translate(-338.47 -7.18)" fill="#eeeff5"/>
            <path id="Path_10517" data-name="Path 10517" d="M490.033,26.007l.838,2.326a.9.9,0,0,0,.8.642H502.82A.991.991,0,0,0,503.7,27.9v-.112l-.929-11.134a.945.945,0,0,0-.956-.963.752.752,0,0,0-.393.176l-11.06,8.824a1.2,1.2,0,0,0-.327,1.316Z" transform="translate(-348.64 -10.043)" fill="#eeeff5"/>
            <path id="Path_10518" data-name="Path 10518" d="M541.531,12.366l.654,6.866a1.151,1.151,0,0,0,.323.721.763.763,0,0,0,.646.226.068.068,0,0,0,.052-.016l11.544-2.535a1.033,1.033,0,0,0,.72-1.059V12.238a.991.991,0,0,0-.877-1.075H542.408a.991.991,0,0,0-.877,1.075Z" transform="translate(-385.283 -7.152)" fill="#eeeff5"/>
            <path id="Path_10519" data-name="Path 10519" d="M545.68,40.02l.183,1.685a.958.958,0,0,0,.864.931h8.023a.991.991,0,0,0,.877-1.075v-.1l-.236-3.4a.953.953,0,0,0-.956-.979.139.139,0,0,0-.078.016L546.4,38.8A1.133,1.133,0,0,0,545.68,40.02Z" transform="translate(-388.227 -23.72)" fill="#eeeff5"/>
            <path id="Path_10520" data-name="Path 10520" d="M584.964,33.975l2.6-.658a.809.809,0,0,1,.864.369l3.154,4.781a1.244,1.244,0,0,1,.19.787,1.153,1.153,0,0,1-.321.721.768.768,0,0,1-.55.241h-5.288a.958.958,0,0,1-.864-.931l-.471-4.123A1.054,1.054,0,0,1,584.964,33.975Z" transform="translate(-415.654 -21.3)" fill="#eeeff5"/>
            <path id="Path_10521" data-name="Path 10521" d="M596.922,15.752l.144-3.562a.982.982,0,0,1,.877-1.027H607.8a.953.953,0,0,1,.864.882l1.872,12.77a1.089,1.089,0,0,1-.707,1.251.523.523,0,0,1-.157.016H604.3a.826.826,0,0,1-.668-.369l-6.492-9.193a1.334,1.334,0,0,1-.222-.77Z" transform="translate(-424.641 -7.152)" fill="#eeeff5"/>
            <path id="Path_10522" data-name="Path 10522" d="M646.011,12.415l.9,6.353a1.109,1.109,0,0,0,.356.691.742.742,0,0,0,.652.175,1,1,0,0,0,.314-.144l8.206-6.353a1.089,1.089,0,0,0,.387-.668,1.277,1.277,0,0,0-.112-.808.864.864,0,0,0-.746-.5h-9.109a.991.991,0,0,0-.877,1.075C646,12.3,646,12.366,646.011,12.415Z" transform="translate(-459.502 -7.152)" fill="#eeeff5"/>
            <path id="Path_10523" data-name="Path 10523" d="M651.613,28.834l.249,2.326a.958.958,0,0,0,.864.931H666.7a.991.991,0,0,0,.877-1.075,1.166,1.166,0,0,0-.131-.562l-4.738-9.385a.794.794,0,0,0-1.2-.353l-9.489,7.059A1.149,1.149,0,0,0,651.613,28.834Z" transform="translate(-463.495 -13.16)" fill="#eeeff5"/>
            <path id="Path_10524" data-name="Path 10524" d="M695.485,12.559l1.505-1.219a.8.8,0,0,1,.484-.176h6.937a.991.991,0,0,1,.877,1.075,1.159,1.159,0,0,1-.314.818l-5.837,6.016a.772.772,0,0,1-.637.248.835.835,0,0,1-.594-.377c-.026-.032-.039-.064-.065-.1l-2.6-4.8a1.241,1.241,0,0,1,.249-1.492Z" transform="translate(-494.396 -7.152)" fill="#eeeff5"/>
            <path id="Path_10525" data-name="Path 10525" d="M710.38,29.963l1.872,3.513a.829.829,0,0,0,.733.481h7.63a.991.991,0,0,0,.877-1.075,1.306,1.306,0,0,0-.144-.594l-4.489-8.326a.788.788,0,0,0-1.217-.3c-.026.016-.039.032-.065.048l-5.013,4.829a1.241,1.241,0,0,0-.183,1.428Z" transform="translate(-505.155 -15.026)" fill="#eeeff5"/>
            <path id="Path_10526" data-name="Path 10526" d="M739.7,11.375l-1.714,1.749a1.242,1.242,0,0,0-.17,1.428l3.01,5.455a.883.883,0,0,0,.559.457.744.744,0,0,0,.658-.168,1.025,1.025,0,0,0,.314-.481l2.448-7.2a1.194,1.194,0,0,0-.471-1.412.827.827,0,0,0-.34-.08H740.25a.859.859,0,0,0-.55.257Z" transform="translate(-524.646 -7.123)" fill="#eeeff5"/>
            <path id="Path_10527" data-name="Path 10527" d="M756.075,36.326l.51,1.2a.894.894,0,0,0,.8.578l6.492-.16a1.006,1.006,0,0,0,.851-1.107,1.149,1.149,0,0,0-.275-.754l-5.131-5.808a.776.776,0,0,0-1.243.064.95.95,0,0,0-.144.257l-1.858,4.765a1.23,1.23,0,0,0,0,.963Z" transform="translate(-537.658 -19.191)" fill="#eeeff5"/>
            <path id="Path_10528" data-name="Path 10528" d="M768.014,11.837l-1.034,3.209a1.272,1.272,0,0,0,.236,1.2l3.338,3.594a.765.765,0,0,0,1.021.128l9.62-6.8a1.184,1.184,0,0,0,.411-1.206.928.928,0,0,0-.843-.8H768.838a.906.906,0,0,0-.825.674Z" transform="translate(-545.434 -7.152)" fill="#eeeff5"/>
            <path id="Path_10529" data-name="Path 10529" d="M802.255,12.98l4.856,12.289A1.19,1.19,0,0,1,806.7,26.7a.7.7,0,0,1-.393.112l-14.934-.321a.8.8,0,0,1-.576-.289l-2.487-2.808a1.265,1.265,0,0,1-.052-1.524.791.791,0,0,1,.2-.193L801.024,12.5a.8.8,0,0,1,1.2.369.481.481,0,0,1,.026.112Z" transform="translate(-560.435 -7.91)" fill="#eeeff5"/>
            <path id="Path_10530" data-name="Path 10530" d="M845.125,11.163h1.662a.991.991,0,0,1,.877,1.075v4.3a.991.991,0,0,1-.877,1.075.891.891,0,0,1-.8-.61l-1.662-4.3a1.287,1.287,0,0,1-.034-.821,1.014,1.014,0,0,1,.453-.606.693.693,0,0,1,.38-.112Z" transform="translate(-600.374 -7.152)" fill="#eeeff5"/>
          </g>
        </g>
      </g>
    </g>
    <g id="Group_16669" data-name="Group 16669" transform="translate(241.888 223.732)">
      <g id="Group_16664" data-name="Group 16664" transform="translate(0 0)">
        <g id="Group_16663" data-name="Group 16663" transform="translate(0 0)" clip-path="url(#clip-path-2)">
          <g id="Group_16662" data-name="Group 16662" transform="translate(0.09 0.42)">
            <rect id="Rectangle_1670" data-name="Rectangle 1670" width="2.265" height="53.451" transform="translate(25.528 6.955)" fill="#2b9962"/>
            <path id="Path_10624" data-name="Path 10624" d="M138.173,199.562c-7.408,5.4-17.984,3.529-17.984,3.529s1.448-10.639,8.856-16.061,17.984-3.529,17.984-3.529S145.581,194.141,138.173,199.562Z" transform="translate(-93.708 -142.822)" fill="#34ab53"/>
            <path id="Path_10625" data-name="Path 10625" d="M8.856,199.562c7.408,5.4,17.984,3.529,17.984,3.529s-1.448-10.639-8.856-16.061S0,183.5,0,183.5,1.448,194.141,8.856,199.562Z" transform="translate(0 -142.822)" fill="#34ab53"/>
            <path id="Path_10626" data-name="Path 10626" d="M132.981,120.577c-5.143,3.751-12.483,2.455-12.483,2.455s1-7.4,6.148-11.151,12.483-2.455,12.483-2.455S138.124,116.826,132.981,120.577Z" transform="translate(-93.949 -85.148)" fill="#34ab53"/>
            <path id="Path_10627" data-name="Path 10627" d="M43.093,120.577c5.143,3.751,12.483,2.455,12.483,2.455s-1-7.4-6.148-11.151-12.483-2.455-12.483-2.455S37.95,116.826,43.093,120.577Z" transform="translate(-28.805 -85.148)" fill="#34ab53"/>
            <path id="Path_10628" data-name="Path 10628" d="M130.146,57.233c-3.951,2.881-9.571,1.875-9.571,1.875s.766-5.661,4.717-8.542,9.571-1.875,9.571-1.875S134.1,54.351,130.146,57.233Z" transform="translate(-94.009 -37.831)" fill="#34ab53"/>
            <path id="Path_10629" data-name="Path 10629" d="M61.3,57.233c3.951,2.881,9.571,1.875,9.571,1.875s-.766-5.661-4.717-8.542-9.571-1.875-9.571-1.875S57.344,54.351,61.3,57.233Z" transform="translate(-44.112 -37.831)" fill="#34ab53"/>
            <path id="Path_10630" data-name="Path 10630" d="M127.355,6.038c-2.725,1.995-6.625,1.3-6.625,1.3s.528-3.921,3.27-5.916c2.725-1.995,6.625-1.3,6.625-1.3S130.08,4.06,127.355,6.038Z" transform="translate(-94.129 -0.003)" fill="#34ab53"/>
            <path id="Path_10631" data-name="Path 10631" d="M79.634,6.038c2.725,1.995,6.625,1.3,6.625,1.3s-.528-3.921-3.27-5.916-6.625-1.3-6.625-1.3S76.892,4.06,79.634,6.038Z" transform="translate(-59.539 -0.003)" fill="#34ab53"/>
            <rect id="Rectangle_1671" data-name="Rectangle 1671" width="32.987" height="13.947" transform="translate(9.997 66.254)" fill="#dcdde2"/>
            <rect id="Rectangle_1672" data-name="Rectangle 1672" width="32.987" height="7.962" transform="translate(9.997 59.281)" fill="#c0c0d1"/>
          </g>
        </g>
      </g>
    </g>
    <g id="Group_16670" data-name="Group 16670" transform="translate(179.968 192.184)">
      <g id="Group_16667" data-name="Group 16667" transform="translate(0 0)">
        <g id="Group_16666" data-name="Group 16666" transform="translate(0)" clip-path="url(#clip-path-3)">
          <g id="Слой_30" data-name="Слой 30" transform="translate(0.245 -0.149)">
            <path id="Path_10632" data-name="Path 10632" d="M26.084,109.469H81.058v79.885a8.139,8.139,0,0,1-8.133,8.145H34.214a8.139,8.139,0,0,1-8.133-8.145V109.469Z" transform="translate(-20.334 -85.622)" fill="#ff953f"/>
            <path id="Path_10633" data-name="Path 10633" d="M40.337,197.5H34.214a8.139,8.139,0,0,1-8.133-8.145V109.469H40.124Z" transform="translate(-20.334 -85.622)" fill="#ffb578"/>
            <path id="Path_10634" data-name="Path 10634" d="M210.753,197.5h6.123a8.139,8.139,0,0,0,8.13-8.145V109.469H210.964Z" transform="translate(-164.317 -85.622)" fill="#ff8017"/>
            <path id="Path_10635" data-name="Path 10635" d="M80.913,23.585H25.939L34.013,5.419a7.039,7.039,0,0,1,6.43-4.182H66.625a7.039,7.039,0,0,1,6.464,4.249Z" transform="translate(-20.224 -1.237)" fill="#ff953f"/>
            <path id="Path_10636" data-name="Path 10636" d="M103.84,32.56H72.646a2.075,2.075,0,0,1-1.894-2.92l4.218-9.486a4.807,4.807,0,0,1,4.391-2.862h17.88a4.806,4.806,0,0,1,4.412,2.9l4.089,9.459a2.075,2.075,0,0,1-1.9,2.907Z" transform="translate(-55.023 -13.755)" fill="#613434"/>
            <rect id="Rectangle_1674" data-name="Rectangle 1674" width="54.974" height="3.543" transform="translate(5.715 32.023)" fill="#ff8017"/>
            <rect id="Rectangle_1675" data-name="Rectangle 1675" width="66.541" height="12.128" rx="6.064" transform="translate(0 20.849)" fill="#ff953f"/>
            <path id="Path_10637" data-name="Path 10637" d="M0,98.977a3.112,3.112,0,0,1,3.109-3.114H63.431a3.112,3.112,0,0,1,3.109,3.114Z" transform="translate(0 -75.014)" fill="#ffb578"/>
          </g>
        </g>
      </g>
    </g>
    <g id="Group_16687" data-name="Group 16687" transform="translate(312.737 91.321)">
      <g id="Group_16681" data-name="Group 16681" transform="translate(0 0)">
        <g id="Group_16680" data-name="Group 16680" transform="translate(0 0)" clip-path="url(#clip-path-4)">
          <g id="Group_16679" data-name="Group 16679" transform="translate(0.273 -0.692)">
            <path id="Path_10666" data-name="Path 10666" d="M15.233,208.148S12.12,217.3,26.981,239.681c7.138,10.751,5.537,18.252,0,21.546s-5.238,6.139-13.154,25.289S5.146,308.96,2.6,311.057-.69,315.4.657,318.393s5.657,7.337,5.657,7.337h6.465s.644-2.7-3.442-3.189c0,0-1.5-6.483,1.691-9.777s39.478-39.783,41.932-50.608c2.873-12.742-1.811-67.108-1.811-67.108s-14.8,2.7-16.147,3.144S15.233,208.148,15.233,208.148Z" transform="translate(0.003 -112.003)" fill="#7d5252"/>
            <path id="Path_10667" data-name="Path 10667" d="M35.274,226.875c-.015.09-.03.195-.045.3l-.015.045-.015.075-.015.075-.015.075-.015.075-.015.09a.19.19,0,0,1-.015.09c-.015.03,0,.06,0,.09a.372.372,0,0,1-.015.12c-.015.045,0,.045,0,.075a.562.562,0,0,1-.015.165v.03a1.134,1.134,0,0,1-.015.225v1.123a1.133,1.133,0,0,0,.015.225v.075c.015.195.03.419.045.644v.075c.015.09.015.18.03.255a.255.255,0,0,0,.015.1c.015.075.015.165.03.24l.015.12c.015.09.015.165.03.255l.015.12.045.269.015.1c.015.1.03.225.045.329l.015.06c.045.27.09.554.15.853l.015.1c.03.12.045.225.075.344l.03.135c.03.1.045.21.075.329l.03.15c.03.1.045.225.075.329l.03.15.09.359.03.135c.045.15.075.3.12.449l.015.06c.045.18.1.359.15.539v.015c.045.165.1.344.15.524l.045.15a4.132,4.132,0,0,1,.12.4l.06.18a3.867,3.867,0,0,1,.12.389l.06.195.135.4.06.195c.045.15.1.284.15.434l.06.18c.06.18.135.359.195.554l.03.075c.075.21.165.434.254.644l.045.1c.075.18.15.374.224.554l.09.195c.06.15.12.314.195.464l.1.24c.06.15.12.3.195.449l.1.255c.06.15.135.3.195.464l.12.255.224.494.1.225c.1.21.21.434.314.659l.03.075c.12.255.239.509.374.764l.09.18c.1.195.195.389.3.584l.135.269c.09.165.18.344.269.524l.15.3.269.509.165.314.284.524.165.314c.1.195.21.374.314.569l.15.27c.15.255.3.524.449.779l.045.075c.165.284.329.584.509.868l.15.27c.12.21.239.419.374.629l.195.329.344.569.224.359.344.569.239.374.374.584.239.359c.135.21.269.434.419.644l.21.314c.21.329.419.644.644.988.1.15.195.314.3.464l.09.15.195.314.1.18.18.285.1.18.165.284.1.18.18.3.09.15c.09.15.165.3.239.434l.06.12c.06.1.12.21.18.329l.09.18.135.254.1.195.12.24.1.195.1.225.09.195.1.225.09.195c.06.135.12.255.165.389.03.075.06.15.09.21l.075.195.09.225.075.18.09.225.06.165.09.24.045.15c.03.09.06.165.09.24l.03.1c.1.3.195.614.284.913l.03.09c.03.09.045.18.075.27l.03.1c.015.09.045.18.06.255l.03.1c.015.09.045.18.06.27l.015.06c.09.419.165.838.224,1.243v.03a1.661,1.661,0,0,1,.03.285v.06c.015.09.015.18.03.27v.045c.015.09.015.195.03.284h0s1.511-12.547,8.231-3.848c6.48,8.4,11.179,10.182,13.588,10.451.269-2.89.374-6.573.374-10.706Z" transform="translate(-20.143 -130.28)" fill="#211c1b"/>
            <path id="Path_10668" data-name="Path 10668" d="M24.008,437.309,9.417,435.392c-3.936,9.747-4.834,12.068-6.779,13.685-2.544,2.1-3.292,4.342-1.945,7.337s5.657,7.337,5.657,7.337h6.465s.644-2.7-3.442-3.189c0,0-1.5-6.483,1.691-9.777C12.185,449.6,17.5,444.226,24.008,437.309Z" transform="translate(-0.017 -250.023)" fill="url(#linear-gradient)"/>
            <path id="Path_10669" data-name="Path 10669" d="M10.105,469.521c-2.993-1.991-4.19,3.743-4.19,3.743-.554-5.091-2.5-7.486-2.5-7.486a7.336,7.336,0,0,1-.778.749c-2.544,2.1-3.292,4.342-1.945,7.337S6.349,481.2,6.349,481.2h6.465s.644-2.7-3.442-3.189C9.342,478,8.19,472.965,10.105,469.521Z" transform="translate(-0.017 -267.473)" fill="#211c1b"/>
            <path id="Path_10670" data-name="Path 10670" d="M79.832,91.228s-27.985,7.022-28.419,24.046,14.2,18.851,14.2,18.851Z" transform="translate(-29.518 -52.383)" fill="url(#linear-gradient-2)"/>
            <path id="Path_10671" data-name="Path 10671" d="M50.429,170.921s-14.157,6.992-15.654,20.947c-1.6,14.853,6.495,22.639,20.742,33.809C70,237.026,80.643,241.533,78.4,246.923s-5.238,16.156-1.347,25.738,10.326,26.038,8.68,30.53-2.245,6.738-1.048,8.684h19.889s0-2.471-3.068-2.995-8.156-1.2-6.884-10.331,7.572-49.59,5.328-60.58-28.943-56.792-28.943-56.792Z" transform="translate(-19.854 -98.148)" fill="#ad8172"/>
            <path id="Path_10672" data-name="Path 10672" d="M113.1,193.437l-2.35-1.168-2.873.165S130.206,226.661,135.684,239c4.579,10.346,6.495,10.152,4.549,29.6s-3.831,34.857-3.831,34.857l1.3.434h0c2.14-14.913,6.211-44.514,4.34-53.678C139.8,239.224,113.1,193.437,113.1,193.437Z" transform="translate(-61.949 -110.407)" fill="#c9ad8f"/>
            <ellipse id="Ellipse_1257" data-name="Ellipse 1257" cx="12.408" cy="2.201" rx="12.408" ry="2.201" transform="matrix(0.809, -0.588, 0.588, 0.809, 41.941, 113.638)" fill="#211c1b"/>
            <path id="Path_10673" data-name="Path 10673" d="M160.373,448.572l-13.02-4.387c2.364,6.872,4.056,13.371,3.113,15.931-1.646,4.492-2.245,6.738-1.048,8.684h19.9s0-2.471-3.068-2.995-8.156-1.2-6.884-10.331C159.595,453.947,159.954,451.551,160.373,448.572Z" transform="translate(-84.618 -255.073)" fill="url(#linear-gradient-3)"/>
            <path id="Path_10674" data-name="Path 10674" d="M174.17,453.434s-1.257,8.115.224,11.709l1.077-11.26Z" transform="translate(-99.732 -260.384)" fill="#fff194"/>
            <path id="Path_10675" data-name="Path 10675" d="M168.241,486.9c-2.484-.419-6.285-.943-6.974-5.959-2.574.809-1.631,5.27-1.631,5.27a12.746,12.746,0,0,0-7.812-3.189c-1.137,3.324-1.437,5.226-.4,6.887h19.874C171.294,489.89,171.294,487.419,168.241,486.9Z" transform="translate(-86.59 -276.178)" fill="#211c1b"/>
            <path id="Path_10676" data-name="Path 10676" d="M158.3,82.349s3.906-4.372,9.189-3.968L161.341,65.52a21.1,21.1,0,0,1-13.214,6.753Z" transform="translate(-85.062 -37.62)" fill="url(#linear-gradient-4)"/>
            <ellipse id="Ellipse_1258" data-name="Ellipse 1258" cx="1.751" cy="7.171" rx="1.751" ry="7.171" transform="matrix(0.902, -0.431, 0.431, 0.902, 74.869, 28.549)" fill="#211c1b"/>
            <path id="Path_10677" data-name="Path 10677" d="M194.755,40.98l-3.247-.255-5.537,1.093-1.646,5.809-.7-.674-4.789,4.312s-1.227,1.333,2.11,7.951l5.492-4.806c.868.9,2.32,1.482,4.774.883a15.659,15.659,0,0,0,1.6,1.527c4.639-.779,6.285-6.843,6.285-6.843Z" transform="translate(-102.569 -23.382)" fill="url(#linear-gradient-5)"/>
            <path id="Path_10678" data-name="Path 10678" d="M132.115,236.969s3.053,16.425,1.811,24.376a12.164,12.164,0,0,1-3.547,5.615c-2.185,1.557-4.28.21-5.642-.374-1.616-.7-4.953-2.231-4.983-4.4a4.263,4.263,0,0,1,1.392-2.276c2.993-2.995,3.7-1,3.7-1s2.125-.344-5.118-15.677C119.724,243.242,126.743,237.867,132.115,236.969Z" transform="translate(-68.752 -136.076)" fill="url(#linear-gradient-6)"/>
            <path id="Path_10679" data-name="Path 10679" d="M106.333,79.23c6.989,1.767,11.718,10.93,9.817,21.89s-7.168,10.8-7.273,18.446c-.075,5.046-6.33,4.986-5.582,7.711.344,1.243,1.931,2.126,1.99,4.058.045,1.9-1.3,2.995-1.2,6.588s.494,8.28.494,8.28-13.259,3.489-20.143,14.569c0,0-4.19-4.3-2.2-13.865s.4-11.978-3.487-15.856-3.083-10.376-3.083-10.376l-3.891-2.59s10.895-24.96,19.739-33.913C96.112,79.529,102.4,78.226,106.333,79.23Z" transform="translate(-41.218 -45.311)" fill="url(#linear-gradient-7)"/>
            <path id="Path_10680" data-name="Path 10680" d="M75.725,145.4s2.08-13.55,6.63-23.432c0,0-7.423,13.461-10.506,20.842Z" transform="translate(-41.259 -70.035)" fill="#211c1b"/>
            <path id="Path_10681" data-name="Path 10681" d="M127.988,38.928c.763.18,0,2.051.748,4.537s4.894,4.088,7.827,1.6,1.8-5.136-1.392-6.483-1.646-7.5-7.123-9.732c-5.028-2.051-8.829,2.89-15.2,5.585s-9.922,3.938-22.538.644c-6.555-1.707-14.95-1.482-20.742,1.6-5.358,2.845-8.186,8.265-8.829,13.85-1.5,13.221,9.817,16.934,15.893,13.476,6.091-2.995,11.852-13.82,21.146-13.356,11.658.584,20.981-8.25,22.478-10.78,0,0-1.092-1.827-.045-3.039s3.786-.794,3.442.794a4.337,4.337,0,0,1-1.287,2.081,1,1,0,0,0-.03,1.422l.03.03.03.015a1.02,1.02,0,0,0,1.317.06C124.815,40.366,127.075,38.7,127.988,38.928Z" transform="translate(-34.799 -16.284)" fill="#211c1b"/>
            <path id="Path_10682" data-name="Path 10682" d="M192.569,65.52a5.057,5.057,0,0,0,.7,3.144l-2.754,2.456Z" transform="translate(-109.406 -37.62)" fill="#211c1b"/>
            <path id="Path_10683" data-name="Path 10683" d="M216.819,64.285a5.307,5.307,0,0,1-.524.764.212.212,0,0,1-.284.045.179.179,0,0,1-.075-.135,6.657,6.657,0,0,0-2.439-4.612.192.192,0,0,1-.075-.225h0a.208.208,0,0,1,.254-.135h0c.584.195,2.26.779,3.218,3.519A.949.949,0,0,1,216.819,64.285Z" transform="translate(-122.552 -34.438)" fill="#211c1b"/>
            <path id="Path_10684" data-name="Path 10684" d="M212.969,67.6a.223.223,0,0,1-.067-.01c-.028-.009-2.774-.9-2.279-3.535a.225.225,0,1,1,.441.083,2.728,2.728,0,0,0,1.971,3.023.225.225,0,0,1-.067.439Z" transform="translate(-120.918 -36.671)" fill="#211c1b"/>
            <path id="Path_10685" data-name="Path 10685" d="M201.3,68.084l-.12-.06a.151.151,0,0,0-.21.06.131.131,0,0,0-.015.1l.239,1.692a.135.135,0,0,0,.165.135c.03,0,.045-.015.06-.015l.09-.045c.464-.24.688-.539.688-.868C202.179,68.5,201.386,68.114,201.3,68.084Z" transform="translate(-115.395 -39.047)" fill="#211c1b"/>
            <path id="Path_10686" data-name="Path 10686" d="M105.67,342.847c-.808-7.756,5.492-15.856,8.785-22.429,2.484-4.971-1.048-9.208-6.2-10.5-2.544-.629-5.163-1.153-7.348-1.632a41.952,41.952,0,0,1-13.948-6.259c13.768,10.586,23.675,14.973,21.5,20.183C106.628,326.662,104.263,334.777,105.67,342.847Z" transform="translate(-49.939 -173.439)" fill="#7d5252"/>
            <path id="Path_10687" data-name="Path 10687" d="M197.364-.008c-3.4.18-5.6,4.058-3.726,7.546a7.309,7.309,0,0,0,4.953,3.923l1.033.539C203.709,7.3,201.823-.247,197.364-.008Z" transform="translate(-110.804 0.013)" fill="#211c1b"/>
            <path id="Path_10688" data-name="Path 10688" d="M202.88,27.089a1.1,1.1,0,0,1-.625-2.015,8.128,8.128,0,0,1,4.478-1.256,1.1,1.1,0,0,1-.076,2.207,5.937,5.937,0,0,0-3.154.871,1.1,1.1,0,0,1-.623.193Z" transform="translate(-115.871 -13.672)" fill="#ff6f3f"/>
            <ellipse id="Ellipse_1259" data-name="Ellipse 1259" cx="1.077" cy="1.078" rx="1.077" ry="1.078" transform="translate(83.881 22.39)" fill="#ff6f3f"/>
          </g>
        </g>
      </g>
    </g>
  </g>
</svg>
