<svg width="24" height="24" viewBox="0 0 24 24" fill="none" xmlns="http://www.w3.org/2000/svg">
    <path d="M8.06857 2.02912C7.58758 2.30053 7.41767 2.91047 7.68908 3.39146C7.96049 3.87246 8.57043 4.04236 9.05143 3.77095L8.06857 2.02912ZM19 9.00004L18 8.99953V9.00004H19ZM18 13C18 13.5523 18.4477 14 19 14C19.5523 14 20 13.5523 20 13H18ZM17 18C17.5523 18 18 17.5523 18 17C18 16.4478 17.5523 16 17 16V18ZM2 16C1.44772 16 1 16.4478 1 17C1 17.5523 1.44772 18 2 18V16ZM5 9.00004H6L6 8.99878L5 9.00004ZM6.66857 6.23878C6.92193 5.74803 6.72948 5.14482 6.23874 4.89146C5.748 4.63811 5.14478 4.83055 4.89143 5.3213L6.66857 6.23878ZM14.595 21.5018C14.8721 21.0241 14.7095 20.4122 14.2318 20.135C13.754 19.8579 13.1421 20.0205 12.865 20.4983L14.595 21.5018ZM11.135 20.4983C10.8579 20.0205 10.246 19.8579 9.76823 20.135C9.2905 20.4122 9.12788 21.0241 9.405 21.5018L11.135 20.4983ZM9.05143 3.77095C10.9096 2.72246 13.1848 2.73959 15.0269 3.81595L16.0359 2.08911C13.5797 0.653966 10.5461 0.631124 8.06857 2.02912L9.05143 3.77095ZM15.0269 3.81595C16.8691 4.89231 18.0011 6.86596 18 8.99953L20 9.00055C20.0015 6.15579 18.4921 3.52425 16.0359 2.08911L15.0269 3.81595ZM18 9.00004V13H20V9.00004H18ZM17 16H2V18H17V16ZM2 18C4.20914 18 6 16.2092 6 14H4C4 15.1046 3.10457 16 2 16V18ZM6 14V9.00004H4V14H6ZM6 8.99878C5.99879 8.03853 6.22807 7.09202 6.66857 6.23878L4.89143 5.3213C4.30409 6.45896 3.99839 7.72097 4 9.0013L6 8.99878ZM12.865 20.4983C12.6861 20.8067 12.3565 20.9965 12 20.9965V22.9965C13.0696 22.9965 14.0583 22.427 14.595 21.5018L12.865 20.4983ZM12 20.9965C11.6435 20.9965 11.3139 20.8067 11.135 20.4983L9.405 21.5018C9.9417 22.427 10.9304 22.9965 12 22.9965V20.9965Z" fill="#999999"/>
    <path d="M1 1L23 23" stroke="#999999" stroke-width="2" stroke-linecap="round" stroke-linejoin="round"/>
</svg>
