<?xml version="1.0" encoding="UTF-8"?>
<!DOCTYPE svg PUBLIC "-//W3C//DTD SVG 1.1//EN" "http://www.w3.org/Graphics/SVG/1.1/DTD/svg11.dtd">
<svg xmlns="http://www.w3.org/2000/svg" version="1.1" width="406px" height="777px" style="shape-rendering:geometricPrecision; text-rendering:geometricPrecision; image-rendering:optimizeQuality; fill-rule:evenodd; clip-rule:evenodd" xmlns:xlink="http://www.w3.org/1999/xlink">
<g><path style="opacity:1" fill="#e77841" d="M 331.5,38.5 C 331.973,39.9063 332.973,40.573 334.5,40.5C 337.784,42.117 340.451,44.4503 342.5,47.5C 343.167,48.8333 344.167,49.8333 345.5,50.5C 345.427,52.0269 346.094,53.0269 347.5,53.5C 351.547,57.6152 353.881,62.6152 354.5,68.5C 354.717,72.7051 355.383,76.7051 356.5,80.5C 359.046,109.273 346.713,128.106 319.5,137C 240.19,138.643 160.857,138.977 81.5,138C 73.3369,137.558 66.0036,135.058 59.5,130.5C 59.0269,129.094 58.0269,128.427 56.5,128.5C 48.5188,123.547 43.1854,116.547 40.5,107.5C 37.397,94.9782 36.7303,82.3116 38.5,69.5C 38.5,69.1667 38.5,68.8333 38.5,68.5C 40.0739,66.8984 40.7406,64.8984 40.5,62.5C 43.5804,53.4183 49.2471,46.4183 57.5,41.5C 59.0269,41.573 60.0269,40.9063 60.5,39.5C 67.1001,35.2694 74.4334,33.1028 82.5,33C 158.5,32.3333 234.5,32.3333 310.5,33C 318.11,33.0144 325.11,34.8477 331.5,38.5 Z"/></g>
<g><path style="opacity:0.008" fill="#27160e" d="M 331.5,38.5 C 333.027,38.427 334.027,39.0937 334.5,40.5C 332.973,40.573 331.973,39.9063 331.5,38.5 Z"/></g>
<g><path style="opacity:0.718" fill="#66361f" d="M 60.5,39.5 C 60.0269,40.9063 59.0269,41.573 57.5,41.5C 57.9731,40.0937 58.9731,39.427 60.5,39.5 Z"/></g>
<g><path style="opacity:0.004" fill="#311c11" d="M 342.5,47.5 C 344.5,47.5 345.5,48.5 345.5,50.5C 344.167,49.8333 343.167,48.8333 342.5,47.5 Z"/></g>
<g><path style="opacity:0.827" fill="#6c3a23" d="M 345.5,50.5 C 346.906,50.9731 347.573,51.9731 347.5,53.5C 346.094,53.0269 345.427,52.0269 345.5,50.5 Z"/></g>
<g><path style="opacity:0.78" fill="#5f311d" d="M 40.5,62.5 C 40.7406,64.8984 40.0739,66.8984 38.5,68.5C 38.595,66.2143 39.2616,64.2143 40.5,62.5 Z"/></g>
<g><path style="opacity:0.09" fill="#2e1a12" d="M 354.5,68.5 C 356.136,72.2095 356.802,76.2095 356.5,80.5C 355.383,76.7051 354.717,72.7051 354.5,68.5 Z"/></g>
<g><path style="opacity:0.086" fill="#361e15" d="M 38.5,69.5 C 36.7303,82.3116 37.397,94.9782 40.5,107.5C 38.4259,103.89 37.2593,99.8899 37,95.5C 36.3333,88.8333 36.3333,82.1667 37,75.5C 37.1909,73.2922 37.6909,71.2922 38.5,69.5 Z"/></g>
<g><path style="opacity:0.533" fill="#66361e" d="M 56.5,128.5 C 58.0269,128.427 59.0269,129.094 59.5,130.5C 57.9731,130.573 56.9731,129.906 56.5,128.5 Z"/></g>
<g><path style="opacity:1" fill="#ea7941" d="M 284.5,316.5 C 292.404,319.569 299.737,323.569 306.5,328.5C 307.035,330.446 308.368,331.446 310.5,331.5C 313.806,332.82 316.806,334.653 319.5,337C 326.004,342.337 332.004,348.171 337.5,354.5C 337.427,356.027 338.094,357.027 339.5,357.5C 339.833,357.5 340.167,357.5 340.5,357.5C 340.427,359.027 341.094,360.027 342.5,360.5C 343.08,362.749 344.413,364.415 346.5,365.5C 347.488,366.795 348.488,368.128 349.5,369.5C 349.427,371.027 350.094,372.027 351.5,372.5C 351.427,374.027 352.094,375.027 353.5,375.5C 359.144,383.79 363.477,392.79 366.5,402.5C 366.41,405.152 367.076,407.485 368.5,409.5C 370.452,414.873 371.452,420.54 371.5,426.5C 371.5,431.167 371.5,435.833 371.5,440.5C 254.833,440.5 138.167,440.5 21.5,440.5C 21.5,436.833 21.5,433.167 21.5,429.5C 21.4919,422.876 22.4919,416.543 24.5,410.5C 26.2766,407.495 27.2766,404.162 27.5,400.5C 30.4009,392.368 34.0676,384.702 38.5,377.5C 39.9063,377.027 40.573,376.027 40.5,374.5C 41.9063,374.027 42.573,373.027 42.5,371.5C 43.9063,371.027 44.573,370.027 44.5,368.5C 45.5116,367.128 46.5116,365.795 47.5,364.5C 49.5869,363.415 50.9202,361.749 51.5,359.5C 54.1954,356.474 56.8621,353.474 59.5,350.5C 62.0892,349.581 64.0892,347.914 65.5,345.5C 66.5,343.833 67.8333,342.5 69.5,341.5C 71.7488,340.92 73.4154,339.587 74.5,337.5C 76.4044,337.262 77.7377,336.262 78.5,334.5C 82.1477,331.34 86.1477,328.673 90.5,326.5C 92.0269,326.573 93.0269,325.906 93.5,324.5C 98.3335,321.582 103.333,318.916 108.5,316.5C 109.499,267.003 109.832,217.336 109.5,167.5C 167.5,167.5 225.5,167.5 283.5,167.5C 283.168,217.336 283.501,267.003 284.5,316.5 Z"/></g>
<g><path style="opacity:0.584" fill="#65351f" d="M 284.5,316.5 C 283.501,267.003 283.168,217.336 283.5,167.5C 225.5,167.5 167.5,167.5 109.5,167.5C 109.832,217.336 109.499,267.003 108.5,316.5C 108.5,266.5 108.5,216.5 108.5,166.5C 167.167,166.5 225.833,166.5 284.5,166.5C 284.5,216.5 284.5,266.5 284.5,316.5 Z"/></g>
<g><path style="opacity:0.714" fill="#62311d" d="M 93.5,324.5 C 93.0269,325.906 92.0269,326.573 90.5,326.5C 90.9731,325.094 91.9731,324.427 93.5,324.5 Z"/></g>
<g><path style="opacity:0.929" fill="#68371f" d="M 306.5,328.5 C 308.23,329.026 309.564,330.026 310.5,331.5C 308.368,331.446 307.035,330.446 306.5,328.5 Z"/></g>
<g><path style="opacity:0.553" fill="#502c18" d="M 78.5,334.5 C 77.7377,336.262 76.4044,337.262 74.5,337.5C 75.2623,335.738 76.5956,334.738 78.5,334.5 Z"/></g>
<g><path style="opacity:0.518" fill="#512c19" d="M 74.5,337.5 C 73.4154,339.587 71.7488,340.92 69.5,341.5C 70.5846,339.413 72.2512,338.08 74.5,337.5 Z"/></g>
<g><path style="opacity:0.851" fill="#6b3a21" d="M 65.5,345.5 C 64.0892,347.914 62.0892,349.581 59.5,350.5C 60.9108,348.086 62.9108,346.419 65.5,345.5 Z"/></g>
<g><path style="opacity:0.51" fill="#68361e" d="M 337.5,354.5 C 338.906,354.973 339.573,355.973 339.5,357.5C 338.094,357.027 337.427,356.027 337.5,354.5 Z"/></g>
<g><path style="opacity:0.486" fill="#432516" d="M 340.5,357.5 C 341.906,357.973 342.573,358.973 342.5,360.5C 341.094,360.027 340.427,359.027 340.5,357.5 Z"/></g>
<g><path style="opacity:0.514" fill="#4d2b18" d="M 51.5,359.5 C 50.9202,361.749 49.5869,363.415 47.5,364.5C 48.0798,362.251 49.4131,360.585 51.5,359.5 Z"/></g>
<g><path style="opacity:0.867" fill="#5f331d" d="M 342.5,360.5 C 344.587,361.585 345.92,363.251 346.5,365.5C 344.413,364.415 343.08,362.749 342.5,360.5 Z"/></g>
<g><path style="opacity:0.357" fill="#492617" d="M 44.5,368.5 C 44.573,370.027 43.9063,371.027 42.5,371.5C 42.427,369.973 43.0937,368.973 44.5,368.5 Z"/></g>
<g><path style="opacity:0.337" fill="#462515" d="M 349.5,369.5 C 350.906,369.973 351.573,370.973 351.5,372.5C 350.094,372.027 349.427,371.027 349.5,369.5 Z"/></g>
<g><path style="opacity:0.333" fill="#462615" d="M 42.5,371.5 C 42.573,373.027 41.9063,374.027 40.5,374.5C 40.427,372.973 41.0937,371.973 42.5,371.5 Z"/></g>
<g><path style="opacity:0.314" fill="#442416" d="M 351.5,372.5 C 352.906,372.973 353.573,373.973 353.5,375.5C 352.094,375.027 351.427,374.027 351.5,372.5 Z"/></g>
<g><path style="opacity:0.31" fill="#452616" d="M 40.5,374.5 C 40.573,376.027 39.9063,377.027 38.5,377.5C 38.427,375.973 39.0937,374.973 40.5,374.5 Z"/></g>
<g><path style="opacity:0.796" fill="#5a2f1c" d="M 27.5,400.5 C 27.2766,404.162 26.2766,407.495 24.5,410.5C 24.7234,406.838 25.7234,403.505 27.5,400.5 Z"/></g>
<g><path style="opacity:0.616" fill="#4f2919" d="M 366.5,402.5 C 367.924,404.515 368.59,406.848 368.5,409.5C 367.076,407.485 366.41,405.152 366.5,402.5 Z"/></g>
<g><path style="opacity:0.533" fill="#7e4224" d="M 371.5,426.5 C 372.487,431.305 372.821,436.305 372.5,441.5C 255.167,441.5 137.833,441.5 20.5,441.5C 20.1832,437.298 20.5166,433.298 21.5,429.5C 21.5,433.167 21.5,436.833 21.5,440.5C 138.167,440.5 254.833,440.5 371.5,440.5C 371.5,435.833 371.5,431.167 371.5,426.5 Z"/></g>
<g><path style="opacity:0.792" fill="#ab5930" d="M 230.5,673.5 C 230.5,607.167 230.5,540.833 230.5,474.5C 207.833,474.5 185.167,474.5 162.5,474.5C 161.836,566.839 162.502,658.839 164.5,750.5C 164.189,751.478 163.522,752.145 162.5,752.5C 161.5,659.502 161.167,566.502 161.5,473.5C 184.833,473.5 208.167,473.5 231.5,473.5C 231.832,540.335 231.499,607.002 230.5,673.5 Z"/></g>
<g><path style="opacity:1" fill="#e97941" d="M 230.5,673.5 C 209.511,698.487 188.178,723.154 166.5,747.5C 165.094,747.973 164.427,748.973 164.5,750.5C 162.502,658.839 161.836,566.839 162.5,474.5C 185.167,474.5 207.833,474.5 230.5,474.5C 230.5,540.833 230.5,607.167 230.5,673.5 Z"/></g>
<g><path style="opacity:0.008" fill="#2a180f" d="M 166.5,747.5 C 166.573,749.027 165.906,750.027 164.5,750.5C 164.427,748.973 165.094,747.973 166.5,747.5 Z"/></g>
</svg>
